<svg xmlns="http://www.w3.org/2000/svg" xmlns:xlink="http://www.w3.org/1999/xlink" xmlns:lucid="lucid" width="1100" height="700"><g transform="translate(-240 -300)" lucid:page-tab-id="0_0"><path d="M260 326a6 6 0 0 1 6-6h148a6 6 0 0 1 6 6v48a6 6 0 0 1-6 6H266a6 6 0 0 1-6-6z" fill="#1071e5"/><use xlink:href="#a" transform="matrix(1,0,0,1,260,320) translate(57.6 36.86666666666667)"/><path d="M480 446a6 6 0 0 1 6-6h148a6 6 0 0 1 6 6v48a6 6 0 0 1-6 6H486a6 6 0 0 1-6-6z" fill="#00c2a8"/><use xlink:href="#b" transform="matrix(1,0,0,1,480,440) translate(58.166666666666664 36.86666666666667)"/><path d="M700 646a6 6 0 0 1 6-6h148a6 6 0 0 1 6 6v48a6 6 0 0 1-6 6H706a6 6 0 0 1-6-6z" fill="#00c2a8"/><use xlink:href="#b" transform="matrix(1,0,0,1,700,640) translate(58.166666666666664 36.86666666666667)"/><path d="M480 326a6 6 0 0 1 6-6h148a6 6 0 0 1 6 6v48a6 6 0 0 1-6 6H486a6 6 0 0 1-6-6z" fill="#4c535d"/><use xlink:href="#c" transform="matrix(1,0,0,1,480,320) translate(53.3 36.86666666666667)"/><path d="M700 446a6 6 0 0 1 6-6h148a6 6 0 0 1 6 6v48a6 6 0 0 1-6 6H706a6 6 0 0 1-6-6z" fill="#4c535d"/><use xlink:href="#c" transform="matrix(1,0,0,1,700,440) translate(53.3 36.86666666666667)"/><path d="M960 646a6 6 0 0 1 6-6h148a6 6 0 0 1 6 6v48a6 6 0 0 1-6 6H966a6 6 0 0 1-6-6z" fill="#4c535d"/><use xlink:href="#c" transform="matrix(1,0,0,1,960,640) translate(53.3 36.86666666666667)"/><path d="M960 726a6 6 0 0 1 6-6h148a6 6 0 0 1 6 6v48a6 6 0 0 1-6 6H966a6 6 0 0 1-6-6z" fill="#4c535d"/><use xlink:href="#c" transform="matrix(1,0,0,1,960,720) translate(53.3 36.86666666666667)"/><path d="M700 526a6 6 0 0 1 6-6h148a6 6 0 0 1 6 6v48a6 6 0 0 1-6 6H706a6 6 0 0 1-6-6z" fill="#4c535d"/><use xlink:href="#c" transform="matrix(1,0,0,1,700,520) translate(53.3 36.86666666666667)"/><path d="M420.5 350h43.12" stroke="#3a414a" fill="none"/><path d="M420.5 350.5h-.5v-1h.5z" stroke="#3a414a" stroke-width=".05" fill="#3a414a"/><path d="M478.38 350l-14.26 4.63v-9.26z" stroke="#3a414a" fill="#3a414a"/><path d="M640.5 470h43.12" stroke="#3a414a" fill="none"/><path d="M640.5 470.5h-.5v-1h.5z" stroke="#3a414a" stroke-width=".05" fill="#3a414a"/><path d="M698.38 470l-14.26 4.63v-9.26z" stroke="#3a414a" fill="#3a414a"/><path d="M640.5 470H664a6 6 0 0 1 6 6v68a6 6 0 0 0 6 6h7.62" stroke="#3a414a" fill="none"/><path d="M640.5 470.5h-.5v-1h.5z" stroke="#3a414a" stroke-width=".05" fill="#3a414a"/><path d="M698.38 550l-14.26 4.63v-9.26z" stroke="#3a414a" fill="#3a414a"/><path d="M560 500.5V664a6 6 0 0 0 6 6h117.62" stroke="#3a414a" fill="none"/><path d="M560.5 500.5h-1v-.5h1z" stroke="#3a414a" stroke-width=".05" fill="#3a414a"/><path d="M698.38 670l-14.26 4.63v-9.26z" stroke="#3a414a" fill="#3a414a"/><path d="M340 380.5V464a6 6 0 0 0 6 6h117.62" stroke="#3a414a" fill="none"/><path d="M340.5 380.5h-1v-.5h1z" stroke="#3a414a" stroke-width=".05" fill="#3a414a"/><path d="M478.38 470l-14.26 4.63v-9.26z" stroke="#3a414a" fill="#3a414a"/><path d="M860.5 670h83.12" stroke="#3a414a" fill="none"/><path d="M860.5 670.5h-.5v-1h.5z" stroke="#3a414a" stroke-width=".05" fill="#3a414a"/><path d="M958.38 670l-14.26 4.63v-9.26z" stroke="#3a414a" fill="#3a414a"/><path d="M860.5 670H904a6 6 0 0 1 6 6v68a6 6 0 0 0 6 6h27.62" stroke="#3a414a" fill="none"/><path d="M860.5 670.5h-.5v-1h.5z" stroke="#3a414a" stroke-width=".05" fill="#3a414a"/><path d="M958.38 750l-14.26 4.63v-9.26z" stroke="#3a414a" fill="#3a414a"/><path d="M900 846a6 6 0 0 1 6-6h148a6 6 0 0 1 6 6v48a6 6 0 0 1-6 6H906a6 6 0 0 1-6-6z" fill="#00c2a8"/><use xlink:href="#b" transform="matrix(1,0,0,1,900,840) translate(58.166666666666664 36.86666666666667)"/><path d="M1160 846a6 6 0 0 1 6-6h148a6 6 0 0 1 6 6v48a6 6 0 0 1-6 6h-148a6 6 0 0 1-6-6z" fill="#4c535d"/><use xlink:href="#c" transform="matrix(1,0,0,1,1160,840) translate(53.3 36.86666666666667)"/><path d="M1160 926a6 6 0 0 1 6-6h148a6 6 0 0 1 6 6v48a6 6 0 0 1-6 6h-148a6 6 0 0 1-6-6z" fill="#4c535d"/><use xlink:href="#c" transform="matrix(1,0,0,1,1160,920) translate(53.3 36.86666666666667)"/><path d="M1060.5 870h83.12" stroke="#3a414a" fill="none"/><path d="M1060.5 870.5h-.5v-1h.5z" stroke="#3a414a" stroke-width=".05" fill="#3a414a"/><path d="M1158.38 870l-14.26 4.63v-9.26z" stroke="#3a414a" fill="#3a414a"/><path d="M1060.5 870h43.5a6 6 0 0 1 6 6v68a6 6 0 0 0 6 6h27.62" stroke="#3a414a" fill="none"/><path d="M1060.5 870.5h-.5v-1h.5z" stroke="#3a414a" stroke-width=".05" fill="#3a414a"/><path d="M1158.38 950l-14.26 4.63v-9.26z" stroke="#3a414a" fill="#3a414a"/><path d="M780.5 863.98l.07.88.2.84.33.8.45.73.56.66.67.55.73.45.8.33.84.2.88.07h97.6v1h-97.64l-1-.08-1-.24-.93-.4-.87-.52-.78-.66-.66-.78-.53-.87-.38-.94-.24-.98-.08-1v-59.9h1zm0-81.2h-1V700.5h1z" stroke="#3a414a" stroke-width=".05" fill="#3a414a"/><path d="M780.5 700.5h-1v-.5h1z" fill="#3a414a"/><path d="M780.52 700.54h-1.04v-.56h1.04zm-1-.5v.45h.96V700z" stroke="#3a414a" stroke-width=".05" fill="#3a414a"/><path d="M898.38 870l-14.26 4.63v-9.26z" fill="#3a414a"/><path d="M900 870l-16.38 5.32v-10.64zm-15.38 3.95l12.14-3.95-12.14-3.95z" stroke="#3a414a" stroke-width=".05" fill="#3a414a"/><use xlink:href="#d" transform="matrix(1,0,0,1,746.4444444444445,782.7844627592509) translate(0 14.222222222222223)"/><use xlink:href="#e" transform="matrix(1,0,0,1,746.4444444444445,782.7844627592509) translate(17.7283950617284 14.222222222222223)"/><defs><path fill="#fff" d="M334 12C148 12 73-100 73-302v-350h148v365c1 109 22 172 113 172s115-63 115-172v-365h142v350c1 201-72 314-257 314" id="f"/><path fill="#fff" d="M415-148C416-3 245 40 110-7 76-20 46-36 21-57l66-92c39 28 72 46 128 52 64 7 83-58 31-81-84-38-196-56-200-175-4-140 166-184 290-135 29 12 54 27 75 43l-66 88c-30-22-61-38-105-42-63-5-71 55-26 75 86 37 200 53 201 176" id="g"/><path fill="#fff" d="M287 12C128 12 36-86 36-248c0-153 86-255 234-260 163-6 229 133 205 300H178c9 112 149 136 236 75l49 89c-44 30-107 56-176 56zm69-311c-1-57-23-99-83-97-56 2-88 40-96 97h179" id="h"/><path fill="#fff" d="M375-371c-80-25-141 14-163 83V0H65v-496h120l10 87h4c33-69 107-120 200-89" id="i"/><g id="a"><use transform="matrix(0.022222222222222223,0,0,0.022222222222222223,0,0)" xlink:href="#f"/><use transform="matrix(0.022222222222222223,0,0,0.022222222222222223,14.600000000000001,0)" xlink:href="#g"/><use transform="matrix(0.022222222222222223,0,0,0.022222222222222223,24.444444444444446,0)" xlink:href="#h"/><use transform="matrix(0.022222222222222223,0,0,0.022222222222222223,35.955555555555556,0)" xlink:href="#i"/></g><path fill="#fff" d="M419-449c0-96-100-86-195-86v183c101 5 195 0 195-97zm144 0c1 98-48 158-116 188L595 0H430L305-235h-81V0H77v-652h235c149 1 250 54 251 203" id="j"/><path fill="#fff" d="M278 12C125 12 36-90 36-248s89-260 242-260c152 0 241 102 241 260S430 12 278 12zm0-401c-69 0-91 65-91 141s22 141 91 141c68 0 91-66 91-141s-23-141-91-141" id="k"/><path fill="#fff" d="M200 12C99 12 65-53 65-154v-547h147v553c-2 31 16 47 44 39L274 0c-19 8-45 12-74 12" id="l"/><g id="b"><use transform="matrix(0.022222222222222223,0,0,0.022222222222222223,0,0)" xlink:href="#j"/><use transform="matrix(0.022222222222222223,0,0,0.022222222222222223,13.46666666666667,0)" xlink:href="#k"/><use transform="matrix(0.022222222222222223,0,0,0.022222222222222223,25.800000000000004,0)" xlink:href="#l"/><use transform="matrix(0.022222222222222223,0,0,0.022222222222222223,32.15555555555556,0)" xlink:href="#h"/></g><path fill="#fff" d="M204-528H25v-124h506v124H352V0H204v-528" id="m"/><path fill="#fff" d="M194 12C101 12 47-46 47-138c0-52 22-93 66-122s115-49 213-59c-4-46-26-73-78-72-55 1-91 22-132 45l-52-97c59-34 124-65 212-65 136 0 197 79 197 224V0H353l-11-51h-3c-38 32-80 63-145 63zm50-114c42-3 57-20 82-42v-87c-53 7-88 20-109 32-47 27-37 102 27 97" id="n"/><path fill="#fff" d="M325 12c-57 0-98-29-129-64h-4L180 0H65v-701h147c-1 83 2 170-4 248 33-29 75-55 131-55 138 0 195 108 195 251 0 151-68 269-209 269zm-34-120c66 0 92-62 92-146 0-143-101-170-171-89v203c22 20 44 32 79 32" id="o"/><g id="c"><use transform="matrix(0.022222222222222223,0,0,0.022222222222222223,0,0)" xlink:href="#m"/><use transform="matrix(0.022222222222222223,0,0,0.022222222222222223,10.933333333333334,0)" xlink:href="#n"/><use transform="matrix(0.022222222222222223,0,0,0.022222222222222223,22.8,0)" xlink:href="#o"/><use transform="matrix(0.022222222222222223,0,0,0.022222222222222223,35.53333333333333,0)" xlink:href="#l"/><use transform="matrix(0.022222222222222223,0,0,0.022222222222222223,41.888888888888886,0)" xlink:href="#h"/></g><path fill="#333" d="M175 0L67-191c6 58 2 128 3 191H24v-248h59L193-55c-6-58-2-129-3-193h46V0h-61" id="p"/><use transform="matrix(0.04938271604938272,0,0,0.04938271604938272,0,0)" xlink:href="#p" id="d"/><path fill="#333" d="M25 0v-261h50V0H25" id="q"/><path fill="#333" d="M185-48c-13 30-37 53-82 52C43 2 14-33 14-96s30-98 90-98c62 0 83 45 84 108H66c0 31 8 55 39 56 18 0 30-7 34-22zm-45-69c5-46-57-63-70-21-2 6-4 13-4 21h74" id="r"/><path fill="#333" d="M128 0H69L1-190h53L99-40l48-150h52" id="s"/><path fill="#333" d="M137-138c1-29-70-34-71-4 15 46 118 7 119 86 1 83-164 76-172 9l43-7c4 19 20 25 44 25 33 8 57-30 24-41C81-84 22-81 20-136c-2-80 154-74 161-7" id="t"/><g id="e"><use transform="matrix(0.04938271604938272,0,0,0.04938271604938272,0,0)" xlink:href="#q"/><use transform="matrix(0.04938271604938272,0,0,0.04938271604938272,4.938271604938272,0)" xlink:href="#r"/><use transform="matrix(0.04938271604938272,0,0,0.04938271604938272,14.814814814814817,0)" xlink:href="#s"/><use transform="matrix(0.04938271604938272,0,0,0.04938271604938272,24.69135802469136,0)" xlink:href="#r"/><use transform="matrix(0.04938271604938272,0,0,0.04938271604938272,34.567901234567906,0)" xlink:href="#q"/><use transform="matrix(0.04938271604938272,0,0,0.04938271604938272,39.50617283950618,0)" xlink:href="#t"/></g></defs></g></svg>