<svg xmlns="http://www.w3.org/2000/svg" xmlns:xlink="http://www.w3.org/1999/xlink" xmlns:lucid="lucid" width="671.33" height="220"><g transform="translate(111.33333333333331 -775.3333333333333)" lucid:page-tab-id="5uD9zv-sWAiL"><path d="M-91.33 801.33a6 6 0 0 1 6-6h148a6 6 0 0 1 6 6v48a6 6 0 0 1-6 6h-148a6 6 0 0 1-6-6z" fill="#1071e5"/><use xlink:href="#a" transform="matrix(1,0,0,1,-91.33333333333331,795.3333333333333) translate(57.6 36.86666666666667)"/><path d="M128.67 921.33a6 6 0 0 1 6-6h148a6 6 0 0 1 6 6v48a6 6 0 0 1-6 6h-148a6 6 0 0 1-6-6z" fill="#00c2a8"/><use xlink:href="#b" transform="matrix(1,0,0,1,128.66666666666669,915.3333333333333) translate(58.166666666666664 36.86666666666667)"/><path d="M380 801.33a6 6 0 0 1 6-6h148a6 6 0 0 1 6 6v48a6 6 0 0 1-6 6H386a6 6 0 0 1-6-6z" fill="#4c535d"/><use xlink:href="#c" transform="matrix(1,0,0,1,380,795.3333333333333) translate(53.3 36.86666666666667)"/><path d="M69.17 825.33h294.45" stroke="#3a414a" fill="none"/><path d="M69.18 825.83h-.5v-1h.5z" stroke="#3a414a" stroke-width=".05" fill="#3a414a"/><path d="M378.38 825.33l-14.26 4.64v-9.27z" stroke="#3a414a" fill="#3a414a"/><path d="M-11.33 855.83v83.5a6 6 0 0 0 6 6h117.6" stroke="#3a414a" fill="none"/><path d="M-10.83 855.85h-1v-.52h1z" stroke="#3a414a" stroke-width=".05" fill="#3a414a"/><path d="M127.05 945.33l-14.27 4.64v-9.27z" stroke="#3a414a" fill="#3a414a"/><path d="M289.17 945.33h33.5a6 6 0 0 0 6-6v-58a6 6 0 0 0-6-6h-108a6 6 0 0 0-6 6v17.62" stroke="#3a414a" fill="none"/><path d="M289.18 945.83h-.5v-1h.5z" stroke="#3a414a" stroke-width=".05" fill="#3a414a"/><path d="M208.67 913.7l-4.64-14.25h9.27z" stroke="#3a414a" fill="#3a414a"/><path d="M289.17 945.33H454a6 6 0 0 0 6-6v-67.6" stroke="#3a414a" fill="none"/><path d="M289.18 945.83h-.5v-1h.5z" stroke="#3a414a" stroke-width=".05" fill="#3a414a"/><path d="M460 856.95l4.63 14.27h-9.26z" stroke="#3a414a" fill="#3a414a"/><defs><path fill="#fff" d="M334 12C148 12 73-100 73-302v-350h148v365c1 109 22 172 113 172s115-63 115-172v-365h142v350c1 201-72 314-257 314" id="d"/><path fill="#fff" d="M415-148C416-3 245 40 110-7 76-20 46-36 21-57l66-92c39 28 72 46 128 52 64 7 83-58 31-81-84-38-196-56-200-175-4-140 166-184 290-135 29 12 54 27 75 43l-66 88c-30-22-61-38-105-42-63-5-71 55-26 75 86 37 200 53 201 176" id="e"/><path fill="#fff" d="M287 12C128 12 36-86 36-248c0-153 86-255 234-260 163-6 229 133 205 300H178c9 112 149 136 236 75l49 89c-44 30-107 56-176 56zm69-311c-1-57-23-99-83-97-56 2-88 40-96 97h179" id="f"/><path fill="#fff" d="M375-371c-80-25-141 14-163 83V0H65v-496h120l10 87h4c33-69 107-120 200-89" id="g"/><g id="a"><use transform="matrix(0.022222222222222223,0,0,0.022222222222222223,0,0)" xlink:href="#d"/><use transform="matrix(0.022222222222222223,0,0,0.022222222222222223,14.600000000000001,0)" xlink:href="#e"/><use transform="matrix(0.022222222222222223,0,0,0.022222222222222223,24.444444444444446,0)" xlink:href="#f"/><use transform="matrix(0.022222222222222223,0,0,0.022222222222222223,35.955555555555556,0)" xlink:href="#g"/></g><path fill="#fff" d="M419-449c0-96-100-86-195-86v183c101 5 195 0 195-97zm144 0c1 98-48 158-116 188L595 0H430L305-235h-81V0H77v-652h235c149 1 250 54 251 203" id="h"/><path fill="#fff" d="M278 12C125 12 36-90 36-248s89-260 242-260c152 0 241 102 241 260S430 12 278 12zm0-401c-69 0-91 65-91 141s22 141 91 141c68 0 91-66 91-141s-23-141-91-141" id="i"/><path fill="#fff" d="M200 12C99 12 65-53 65-154v-547h147v553c-2 31 16 47 44 39L274 0c-19 8-45 12-74 12" id="j"/><g id="b"><use transform="matrix(0.022222222222222223,0,0,0.022222222222222223,0,0)" xlink:href="#h"/><use transform="matrix(0.022222222222222223,0,0,0.022222222222222223,13.46666666666667,0)" xlink:href="#i"/><use transform="matrix(0.022222222222222223,0,0,0.022222222222222223,25.800000000000004,0)" xlink:href="#j"/><use transform="matrix(0.022222222222222223,0,0,0.022222222222222223,32.15555555555556,0)" xlink:href="#f"/></g><path fill="#fff" d="M204-528H25v-124h506v124H352V0H204v-528" id="k"/><path fill="#fff" d="M194 12C101 12 47-46 47-138c0-52 22-93 66-122s115-49 213-59c-4-46-26-73-78-72-55 1-91 22-132 45l-52-97c59-34 124-65 212-65 136 0 197 79 197 224V0H353l-11-51h-3c-38 32-80 63-145 63zm50-114c42-3 57-20 82-42v-87c-53 7-88 20-109 32-47 27-37 102 27 97" id="l"/><path fill="#fff" d="M325 12c-57 0-98-29-129-64h-4L180 0H65v-701h147c-1 83 2 170-4 248 33-29 75-55 131-55 138 0 195 108 195 251 0 151-68 269-209 269zm-34-120c66 0 92-62 92-146 0-143-101-170-171-89v203c22 20 44 32 79 32" id="m"/><g id="c"><use transform="matrix(0.022222222222222223,0,0,0.022222222222222223,0,0)" xlink:href="#k"/><use transform="matrix(0.022222222222222223,0,0,0.022222222222222223,10.933333333333334,0)" xlink:href="#l"/><use transform="matrix(0.022222222222222223,0,0,0.022222222222222223,22.8,0)" xlink:href="#m"/><use transform="matrix(0.022222222222222223,0,0,0.022222222222222223,35.53333333333333,0)" xlink:href="#j"/><use transform="matrix(0.022222222222222223,0,0,0.022222222222222223,41.888888888888886,0)" xlink:href="#f"/></g></defs></g></svg>